<svg xmlns="http://www.w3.org/2000/svg" viewBox="0 0 400 280" fill="none" stroke="#1A1F2E" stroke-width="1.2" stroke-linecap="round" stroke-linejoin="round" opacity="0.85">
  
  <rect x="60" y="180" width="280" height="60"></rect>
  <line x1="100" y1="240" x2="100" y2="260"></line>
  <line x1="300" y1="240" x2="300" y2="260"></line>
  <line x1="60" y1="200" x2="340" y2="200"></line>
  
  <rect x="80" y="160" width="240" height="20"></rect>
  
  <rect x="120" y="146" width="160" height="14"></rect>
  <line x1="140" y1="146" x2="140" y2="160"></line>
  <line x1="170" y1="146" x2="170" y2="160"></line>
  <line x1="200" y1="146" x2="200" y2="160"></line>
  <line x1="230" y1="146" x2="230" y2="160"></line>
  <line x1="260" y1="146" x2="260" y2="160"></line>
  
  <line x1="200" y1="146" x2="200" y2="80"></line>
  <circle cx="200" cy="78" r="6"></circle>
  <line x1="200" y1="78" x2="320" y2="40"></line>
  <circle cx="324" cy="38" r="10"></circle>
  
  <circle cx="80" cy="190" r="34"></circle>
  <circle cx="80" cy="190" r="6"></circle>
  <line x1="80" y1="156" x2="80" y2="224"></line>
  <line x1="46" y1="190" x2="114" y2="190"></line>
  <line x1="56" y1="166" x2="104" y2="214"></line>
  <line x1="56" y1="214" x2="104" y2="166"></line>
  
  <line x1="80" y1="190" x2="40" y2="170"></line>
  <circle cx="38" cy="168" r="4"></circle>
  
  <path d="M 220 130 L 280 110 L 296 132 L 236 152 Z"></path>
</svg>