<svg xmlns="http://www.w3.org/2000/svg" viewBox="0 0 400 280" fill="none" stroke="#1A1F2E" stroke-width="1.2" stroke-linecap="round" stroke-linejoin="round" opacity="0.85">
  
  <rect x="60" y="80" width="280" height="160" rx="8"></rect>
  
  <rect x="80" y="100" width="120" height="100" rx="4"></rect>
  <line x1="88" y1="110" x2="192" y2="110"></line>
  <line x1="88" y1="120" x2="192" y2="120"></line>
  <line x1="88" y1="130" x2="192" y2="130"></line>
  <line x1="88" y1="140" x2="192" y2="140"></line>
  <line x1="88" y1="150" x2="192" y2="150"></line>
  <line x1="88" y1="160" x2="192" y2="160"></line>
  <line x1="88" y1="170" x2="192" y2="170"></line>
  <line x1="88" y1="180" x2="192" y2="180"></line>
  <line x1="88" y1="190" x2="192" y2="190"></line>
  
  <rect x="220" y="100" width="100" height="50" rx="4"></rect>
  <line x1="220" y1="120" x2="320" y2="120"></line>
  <line x1="232" y1="100" x2="232" y2="150"></line>
  <line x1="244" y1="100" x2="244" y2="150"></line>
  <line x1="256" y1="100" x2="256" y2="150"></line>
  <line x1="268" y1="100" x2="268" y2="150"></line>
  <line x1="280" y1="100" x2="280" y2="150"></line>
  <line x1="292" y1="100" x2="292" y2="150"></line>
  <line x1="304" y1="100" x2="304" y2="150"></line>
  
  <line x1="270" y1="100" x2="270" y2="150" stroke-width="2"></line>
  
  <circle cx="244" cy="190" r="14"></circle>
  <circle cx="244" cy="190" r="3"></circle>
  <line x1="244" y1="180" x2="244" y2="190"></line>
  <circle cx="296" cy="190" r="14"></circle>
  <circle cx="296" cy="190" r="3"></circle>
  <line x1="296" y1="200" x2="296" y2="190"></line>
  
  <line x1="320" y1="80" x2="360" y2="40"></line>
  <circle cx="362" cy="38" r="2"></circle>
  
  <line x1="80" y1="240" x2="80" y2="252"></line>
  <line x1="320" y1="240" x2="320" y2="252"></line>
  <line x1="76" y1="252" x2="84" y2="252"></line>
  <line x1="316" y1="252" x2="324" y2="252"></line>
</svg>