<svg xmlns="http://www.w3.org/2000/svg" viewBox="0 0 400 280" fill="none" stroke="#1A1F2E" stroke-width="1.2" stroke-linecap="round" stroke-linejoin="round" opacity="0.85">
  
  
  <rect x="80" y="40" width="240" height="180"></rect>
  
  <rect x="120" y="60" width="160" height="120"></rect>
  <line x1="200" y1="60" x2="200" y2="180"></line>
  <line x1="120" y1="120" x2="280" y2="120"></line>
  
  <rect x="86" y="60" width="28" height="120"></rect>
  <rect x="286" y="60" width="28" height="120"></rect>
  <line x1="86" y1="80" x2="114" y2="80"></line>
  <line x1="86" y1="100" x2="114" y2="100"></line>
  <line x1="86" y1="120" x2="114" y2="120"></line>
  <line x1="86" y1="140" x2="114" y2="140"></line>
  <line x1="86" y1="160" x2="114" y2="160"></line>
  <line x1="286" y1="80" x2="314" y2="80"></line>
  <line x1="286" y1="100" x2="314" y2="100"></line>
  <line x1="286" y1="120" x2="314" y2="120"></line>
  <line x1="286" y1="140" x2="314" y2="140"></line>
  <line x1="286" y1="160" x2="314" y2="160"></line>
  
  <rect x="60" y="200" width="280" height="40"></rect>
  <line x1="80" y1="200" x2="80" y2="240"></line>
  <line x1="100" y1="200" x2="100" y2="240"></line>
  <line x1="120" y1="200" x2="120" y2="240"></line>
  <line x1="140" y1="200" x2="140" y2="240"></line>
  <line x1="160" y1="200" x2="160" y2="240"></line>
  <line x1="180" y1="200" x2="180" y2="240"></line>
  <line x1="200" y1="200" x2="200" y2="240"></line>
  <line x1="220" y1="200" x2="220" y2="240"></line>
  <line x1="240" y1="200" x2="240" y2="240"></line>
  <line x1="260" y1="200" x2="260" y2="240"></line>
  <line x1="280" y1="200" x2="280" y2="240"></line>
  <line x1="300" y1="200" x2="300" y2="240"></line>
  <line x1="320" y1="200" x2="320" y2="240"></line>
  <line x1="60" y1="220" x2="340" y2="220"></line>
  
  <path d="M 150 218 q 10 -16 25 0 q 15 -16 25 0"></path>
  <path d="M 200 218 q 10 -16 25 0 q 15 -16 25 0"></path>
  
  <path d="M 130 200 L 134 184 L 168 184 L 172 200 Z"></path>
  <path d="M 144 184 q 6 -22 12 -8 q 6 -16 6 -2"></path>
  <path d="M 150 178 q -8 -16 0 -28 q 8 14 0 28"></path>
</svg>